<svg xmlns="http://www.w3.org/2000/svg" width="40.25" height="40.25" viewBox="0 0 40.25 40.25">
  <path id="Icon_ionic-ios-help-buoy" data-name="Icon ionic-ios-help-buoy" d="M23,3.375A19.625,19.625,0,1,0,42.625,23,19.622,19.622,0,0,0,23,3.375Zm5.152,3.434A17.026,17.026,0,0,1,39.191,17.848l-8.378.566a9.059,9.059,0,0,0-3.2-3.208Zm-17.162,4.18a16.862,16.862,0,0,1,6.859-4.18l.538,8.4a9.268,9.268,0,0,0-3.2,3.2L6.8,17.848A17.049,17.049,0,0,1,10.989,10.989Zm6.859,28.2A17.026,17.026,0,0,1,6.809,28.152l8.4-.538A9.135,9.135,0,0,0,18.4,30.8ZM23,29.416A6.416,6.416,0,1,1,29.416,23,6.423,6.423,0,0,1,23,29.416Zm12.011,5.6a16.924,16.924,0,0,1-6.859,4.18L27.595,30.8a9.088,9.088,0,0,0,3.217-3.227l8.378.566A16.9,16.9,0,0,1,35.011,35.011Z" transform="translate(-2.875 -2.875)" fill="#002138" stroke="#002138" stroke-width="1"/>
</svg>
