<svg id="Icon_feather-settings" data-name="Icon feather-settings" xmlns="http://www.w3.org/2000/svg" width="42.988" height="42.988" viewBox="0 0 42.988 42.988">
  <path id="Trazado_21" data-name="Trazado 21" d="M24.406,18.953A5.453,5.453,0,1,1,18.953,13.5,5.453,5.453,0,0,1,24.406,18.953Z" transform="translate(2.541 2.541)" fill="none" stroke="#002138" stroke-linecap="round" stroke-linejoin="round" stroke-width="3"/>
  <path id="Trazado_22" data-name="Trazado 22" d="M34.944,26.947a3,3,0,0,0,.6,3.308l.109.109a3.637,3.637,0,1,1-5.144,5.144L30.4,35.4a3.023,3.023,0,0,0-5.126,2.145v.309a3.635,3.635,0,1,1-7.27,0v-.164a3,3,0,0,0-1.963-2.745,3,3,0,0,0-3.308.6l-.109.109A3.637,3.637,0,1,1,7.48,30.509l.109-.109a3.023,3.023,0,0,0-2.145-5.126H5.135a3.635,3.635,0,1,1,0-7.27H5.3a3,3,0,0,0,2.745-1.963,3,3,0,0,0-.6-3.308l-.109-.109A3.637,3.637,0,1,1,12.478,7.48l.109.109a3,3,0,0,0,3.308.6h.145a3,3,0,0,0,1.818-2.745V5.135a3.635,3.635,0,1,1,7.27,0V5.3a3.023,3.023,0,0,0,5.126,2.145l.109-.109a3.637,3.637,0,1,1,5.144,5.144l-.109.109a3,3,0,0,0-.6,3.308v.145a3,3,0,0,0,2.745,1.818h.309a3.635,3.635,0,0,1,0,7.27h-.164a3,3,0,0,0-2.745,1.818Z" fill="none" stroke="#002138" stroke-linecap="round" stroke-linejoin="round" stroke-width="3"/>
</svg>
